PathFileType	4	(X/Y/Z)	S00_P01_T02_Participants1-2_P1_0-100.trc
DataRate	CameraRate	NumFrames	NumMarkers	Units	OrigDataRate	OrigDataStartFrame	OrigNumFrames
60	60	8	21	m	60	25	100
Frame#	Time	RHip			RKnee			RAnkle			RBigToe			RSmallToe			RHeel			LHip			LKnee			LAnkle			LBigToe			LSmallToe			LHeel			Neck			Head			Nose			RShoulder			RElbow			RWrist			LShoulder			LElbow			LWrist		
		X1	Y1	Z1	X2	Y2	Z2	X3	Y3	Z3	X4	Y4	Z4	X5	Y5	Z5	X6	Y6	Z6	X7	Y7	Z7	X8	Y8	Z8	X9	Y9	Z9	X10	Y10	Z10	X11	Y11	Z11	X12	Y12	Z12	X13	Y13	Z13	X14	Y14	Z14	X15	Y15	Z15	X16	Y16	Z16	X17	Y17	Z17	X18	Y18	Z18	X19	Y19	Z19	X20	Y20	Z20	X21	Y21	Z21
26	0.4333333333333333	-1.0510925063726897	0.9793910607562747	-0.9742791853402081	-0.8759228794479079	0.9687487604073062	-0.7311343755026145	-0.888131416951595	0.9480384052905181	-0.9651710649606523	-0.7936561788063089	0.9435643411945572	-1.0458951781572876	-0.8162415406292346	0.9231427767437497	-1.0398237612861339	-0.9111261767483144	0.9549239158148682	-1.0069448708790605	-1.051635614947373	0.9800021216341009	-1.1184611405767904	-0.878052655848652	0.9712178126506517	-1.3566298662479404	-0.889771233763541	0.9491665216961633	-1.1237591104439155	-0.7892632583474828	0.9409515922747372	-1.05776373708208	-0.812995395632607	0.9211584469204877	-1.0616495115759716	-0.911590145514145	0.9558119382151162	-1.0791801183443241	-1.0896140469841555	1.3853914630505824	-1.0570205047238428	-1.0381681436313714	1.5468117184247645	-1.0582635417138673	-1.0032599064535022	1.4488522725537993	-1.056615982954201	-1.0967926676770992	1.332756509299922	-0.9260500089437287	-1.038432185800242	1.1500286165773814	-0.8549632145453722	-0.872023860013468	1.0868955218587077	-0.9313701089754004	-1.0809399645484228	1.337416960088413	-1.1781483206128294	-1.0444536461838276	1.1650277771497726	-1.2645162230412643	-0.9085861116902346	1.1195926271493166	-1.1252930620102042
27	0.45	-1.0510904416656628	0.9780706183216542	-0.974281314961675	-0.8759203312292704	0.9674286294490683	-0.7311388333870295	-0.8876079185414545	0.9464826464219857	-0.9651826004985115	-0.7929616396109734	0.9419644045816682	-1.045699371141636	-0.815553315745443	0.9215412761739826	-1.0396565648364802	-0.910519192199766	0.9533220712702309	-1.007010132166608	-1.0516338091741386	0.9786818071619776	-1.1184632448419285	-0.8780516289845166	0.9698980404936451	-1.356633186826404	-0.8897696876843852	0.9478465103484847	-1.1237623773583292	-0.7892616364439382	0.9396316753253193	-1.057767924922526	-0.8129937684439622	0.9198385650473132	-1.0616534844059602	-0.9115884718824039	0.9544918434976096	-1.0791832864167124	-1.089705002641513	1.3840508826554927	-1.057083028438832	-1.0381618032583457	1.5454939941663395	-1.0582607620263873	-1.0010101644773748	1.4480672433542074	-1.054852621850393	-1.0967763847002354	1.3314405563299543	-0.9260389567392024	-1.0385116325445427	1.1490368892247456	-0.8541281281274941	-0.8725265429038391	1.085177430330929	-0.9308512826000872	-1.080937548491437	1.336095492947426	-1.1781526518565604	-1.0444518644394658	1.1637070811551125	-1.2645196507869023	-0.9084282417095265	1.1174749889290783	-1.1257890597269922
28	0.4666666666666667	-1.0510879628620604	0.9765056932561685	-0.974283814299201	-0.8759172793206179	0.965864072190348	-0.7311440884278988	-0.8869873190966644	0.94463902930322	-0.9651945360615546	-0.7921388629086458	0.940068740204253	-1.0454650578594908	-0.8147379462876875	0.9196437227777771	-1.0394561740133847	-0.9097994825903204	0.9514238050851095	-1.0070854551532564	-1.051631637672301	0.9771170340189491	-1.11846571398991	-0.878050380302305	0.968333909666858	-1.3566370948864757	-0.8897678233888333	0.9462820955583249	-1.1237662226318768	-0.7892596821390275	0.9380673718429988	-1.0577728603440977	-0.8129918079213176	0.9182743031409615	-1.0616581657197022	-0.9115864564231716	0.9529273299510257	-1.0791870146766573	-1.0898490073075966	1.382453547261734	-1.05718137990941	-1.0381542880002874	1.543932280845122	-1.0582574590195621	-0.9978001940493499	1.4472653407277878	-1.0523372549405283	-1.0967656184164671	1.32987914619064	-0.9260320650209662	-1.0386065716717412	1.1478662626972918	-0.8531399826824296	-0.8731270863919974	1.0831409952228563	-0.930229198994001	-1.0809346552135288	1.3345293563397922	-1.1781577486393848	-1.0444497222755385	1.1621418573036448	-1.2645236821283614	-0.9082450544333979	1.1149668501091576	-1.1263807560663692
29	0.4833333333333333	-1.0510850898024624	0.9747046927074516	-0.974286672622287	-0.8759137461572132	0.9640634936619354	-0.7311501198979268	-0.8862728948694023	0.9425175584795117	-0.9652059598310192	-0.7911924786157042	0.9378877875627837	-1.0451923953781905	-0.8137999842493256	0.9174605485524507	-1.0392225700227162	-0.9089707748479456	0.9492394006868309	-1.0071694433144824	-1.0516291186402085	0.9753162083951221	-1.1184685355676924	-0.8780489226354438	0.9665338225801255	-1.3566415692676392	-0.8897656569642926	0.9444816815161764	-1.1237706283398732	-0.7892574117392686	0.9362670854054017	-1.0577785214399418	-0.8129895303698222	0.9164740645752996	-1.0616635346985706	-0.911584116112058	0.9511268023372729	-1.0791912861122654	-1.0900243503489824	1.3806130274726136	-1.0573009325458915	-1.0381456377678908	1.54213496733449	-1.0582536461741823	-0.9941756688240141	1.4463249763506596	-1.0494986072372006	-1.0967715551381017	1.3280783296482908	-0.9260374599861333	-1.038716904090987	1.1465253751228783	-0.8520049177389253	-0.8738246608942022	1.0807971689452434	-0.9295035915589234	-1.080931309154495	1.3327269632972554	-1.1781635792743956	-1.0444472388310673	1.1603405138126965	-1.2645282924351413	-0.9080395155413299	1.1120825120767492	-1.1270668926409295
30	0.5	-1.0510818456594617	0.9726772918966922	-0.9742898779349679	-0.875909757914966	0.9620365666729691	-0.7311569042117944	-0.8854684248364607	0.9401297437341578	-0.9652158719906625	-0.790127809534785	0.9354335484121432	-1.0448816304942157	-0.8127446649162359	0.9150037476533475	-1.0389557966447729	-0.9080373720574725	0.9467806900401852	-1.007260546854432	-1.0516262733525186	0.9732890044094447	-1.118471695652729	-0.878047271099909	0.9645074490171813	-1.3566465860922106	-0.8897632072786887	0.9424549400559956	-1.1237755742329236	-0.7892548443752816	0.9342404871504734	-1.0577848833426646	-0.8129869549186429	0.9144475202532107	-1.0616695677240409	-0.9115814708371639	0.9490999331459792	-1.079196081514946	-1.0901566103544744	1.3785566418827286	-1.0573916742191187	-1.0381358985138835	1.5401117080089837	-1.0582493392864358	-0.9909606089710411	1.4450598457229433	-1.0469835762667734	-1.0968095877414983	1.3260445455088976	-0.926066319385724	-1.0388424905917155	1.1450240280871948	-0.8507299770598635	-0.8746181636978622	1.0781586571560553	-0.9286743329008491	-1.0809275386817183	1.330697995783201	-1.1781701080387177	-1.0444444364179062	1.1583127271212437	-1.2645334539809583	-0.9078149292772707	1.108838412919512	-1.1278458932857198
31	0.5166666666666667	-1.0510782541762695	0.9704343825591869	-0.974293415331263	-0.8759053417960887	0.9597941802089986	-0.7311644124853647	-0.884578170773725	0.9374885368804354	-0.9652232082601169	-0.7889508372464387	0.9327195173267462	-1.04453312311518	-0.8115778741304566	0.9122868074214359	-1.0386559845339527	-0.9070041328898117	0.9440609891927911	-1.0073570925785216	-1.051623123430824	0.971046312590125	-1.1184751774672927	-0.878045440435638	0.96226567466103	-1.3566521174198765	-0.889760493295176	0.9402127591083081	-1.1237810360228901	-0.7892519993433131	0.9319984642037874	-1.057791916207577	-0.8129841008696983	0.9122055570328182	-1.0616762364313146	-0.9115785406984319	0.9468576110412925	-1.0792013777285645	-1.0900927179977709	1.3763315253892783	-1.0573508229315844	-1.0381251219955203	1.537873370897871	-1.0582445564958536	-0.9887036707545552	1.4433505164843927	-1.0452226030607266	-1.0968952259068743	1.323785430509752	-0.9261298951079687	-1.0389831394717632	1.1433730771519666	-0.849323057239911	-0.8755061618889036	1.0752398843423925	-0.9277415119604868	-1.080923373085186	1.3284533533415512	-1.1781772939558088	-1.0444413376840407	1.1560693904914532	-1.2645391347970456	-0.9075748723939238	1.1052530285690108	-1.1287158191532052
32	0.5333333333333333	-1.051074338831839	0.96798801448682	-0.9742972666547377	-0.8759005252000611	0.957348380979834	-0.7311726099812479	-0.8836068565752437	0.9346082602201626	-0.9652268668872497	-0.7876681657441617	0.9297606033691739	-1.0441473725981743	-0.8103061134064583	0.9093246305463986	-1.0383233785693133	-0.9058764500115873	0.9410950252646949	-1.0074573177424977	-1.0516196900245407	0.9686001814339527	-1.1184789611417736	-0.8780434442409359	0.9598205426908061	-1.3566581310878605	-0.889757533283849	0.9377671842663966	-1.1237869850665196	-0.7892488953270006	0.9295530612428978	-1.0577995848150088	-0.812980986921663	0.9097602192923692	-1.0616835073262696	-0.9115753452095563	0.9444118824226642	-1.0792071473143237	-1.0895893540915542	1.3740072800956744	-1.0570150860905867	-1.0381133655067736	1.5354319792896525	-1.0582393183069791	-0.9874497337582643	1.441198574868479	-1.0442505418492147	-1.0970341232931535	1.3213118575509026	-0.9262322593023841	-1.039138595802813	1.1415843121185094	-0.847792850975744	-0.8764868349807616	1.0720569467429093	-0.9267055206481722	-1.0809188416160445	1.3260050946633994	-1.1781850908081284	-1.0444379647437398	1.1536225555904422	-1.2645452986329164	-0.907323124743932	1.101346760077676	-1.129674324239642
33	0.55	-1.0510701229904786	0.9653513306624526	-0.9743014108312266	-0.8758953358568267	0.9547123085845964	-0.7311814565314588	-0.8825596458704315	0.9315045272260554	-0.9652257377192388	-0.786286982075198	0.9265730435303243	-1.0437250454619282	-0.8089364621371607	0.9061334490193559	-1.0379583666982155	-0.9046602264705722	0.9378988554353073	-1.0075594064296636	-1.0516159939685217	0.965963752545989	-1.1184830240716377	-0.8780412951765386	0.9571851889564608	-1.3566645911666058	-0.8897543450039921	0.9351313539511215	-1.1237933887730003	-0.7892455505809068	0.9269174156728665	-1.057807849012201	-0.8129776313531835	0.907124644107193	-1.0616913422129028	-0.9115719034729852	0.9417758865845415	-1.079213358948574	-1.0883437112600767	1.3716685737138452	-1.0561813767492472	-1.0381006915815834	1.5328006471141034	-1.0582336476015637	-0.9869466023538	1.4386773224891223	-1.0438690657503658	-1.097204375798151	1.318641587864891	-0.9263574352895401	-1.0393085316644943	1.1396703292252361	-0.8461487844214176	-0.8775579181143259	1.0686275507171221	-0.9255671473835425	-1.0809139735686133	1.3233663726487572	-1.178193447791043	-1.0444343393130764	1.1509853676009907	-1.2645519054929553	-0.9070635968953552	1.0971418076831767	-1.1307186123116146
